<svg class="custom-svg" width="460" height="60" version="1.1" viewBox="0 0 460 60" xmlns="http://www.w3.org/2000/svg">
	<g transform="matrix(.571 0 0 .571 -25.7 -47)" >
		<g transform="matrix(1.33 0 0 -1.33 61.5 93.4)" >
			<path d="m0 0c-2.88-9.38-10.2-36.2-5.05-50.4 4.15-11.4 16.8-17.3 28.2-13.1 5.52 2.01 9.93 6.05 12.4 11.4 2.48 5.32 2.74 11.3 0.735 16.8-5.18 14.2-28 30.1-36.3 35.4m15.6-70.4c-11.2-1e-3 -21.8 6.94-25.9 18.1-6.99 19.2 5.55 55.9 6.09 57.5l1.11 3.22 2.92-1.75c1.41-0.845 34.6-20.9 41.6-40.1 2.51-6.91 2.19-14.4-0.918-21-3.11-6.66-8.62-11.7-15.5-14.2-3.1-1.13-6.27-1.66-9.38-1.66" />
		</g>
		<g transform="matrix(1.33 0 0 -1.33 81.7 187)" >
			<path d="m0 0c-3.12 0-6.29 0.534-9.39 1.66l1.89 5.2c11.4-4.15 24 1.75 28.2 13.1 5.19 14.3-2.17 41.1-5.05 50.4-3.22-2.08-8.68-5.77-14.4-10.3l-3.44 4.33c9.3 7.38 17.6 12.4 18 12.6l2.92 1.75 1.11-3.22c0.537-1.55 13.1-38.3 6.09-57.5-4.06-11.2-14.6-18.1-25.9-18.1" />
		</g>
	</g>
	<g transform="matrix(2.15 0 0 2.15 -3.31 11.2)"  aria-label="Tulip Solutions">
		<path d="m41.4-1.97v3.58h-5.63v15.1h-4.2v-15.1h-5.63v-3.58z" />
		<path d="m54 16.2q-1.02 0.296-2.64 0.539-1.62 0.269-3.39 0.269-1.8 0-3.02-0.485-1.19-0.485-1.89-1.35-0.7-0.889-0.997-2.1-0.296-1.21-0.296-2.67v-7.89h4.01v7.41q0 1.94 0.512 2.8 0.512 0.862 1.91 0.862 0.431 0 0.916-0.0269 0.485-0.0539 0.862-0.108v-10.9h4.01z" />
		<path d="m63.5 17q-1.75-0.0269-2.85-0.377-1.08-0.35-1.72-0.97-0.619-0.646-0.862-1.54-0.215-0.916-0.215-2.05v-15.6l4.01-0.646v15.4q0 0.539 0.0808 0.97t0.296 0.727q0.242 0.296 0.673 0.485 0.431 0.189 1.16 0.242z" />
		<path d="m70.4 16.7h-4.01v-14.2h4.01zm0.377-18.3q0 1.1-0.727 1.75-0.7 0.619-1.67 0.619t-1.7-0.619q-0.7-0.646-0.7-1.75 0-1.1 0.7-1.72 0.727-0.646 1.7-0.646t1.67 0.646q0.727 0.619 0.727 1.72z" />
		<path d="m83.2 9.72q0-1.86-0.835-2.96-0.835-1.13-2.48-1.13-0.539 0-0.997 0.0539-0.458 0.0269-0.754 0.0808v7.25q0.377 0.242 0.97 0.404 0.619 0.162 1.24 0.162 2.85 0 2.85-3.85zm4.09-0.108q0 1.64-0.404 2.99t-1.19 2.32q-0.781 0.97-1.94 1.51-1.16 0.539-2.67 0.539-0.835 0-1.56-0.162t-1.4-0.458v5.33h-4.01v-18.7q0.539-0.162 1.24-0.296 0.7-0.162 1.45-0.269 0.781-0.108 1.56-0.162 0.808-0.0808 1.54-0.0808 1.75 0 3.12 0.539 1.37 0.512 2.32 1.48 0.943 0.943 1.43 2.32 0.512 1.37 0.512 3.07z" />
		<path d="m102 13.5q0.889 0 1.45-0.135 0.593-0.162 0.943-0.404 0.35-0.269 0.485-0.619 0.135-0.35 0.135-0.781 0-0.916-0.862-1.51-0.862-0.619-2.96-1.32-0.916-0.323-1.83-0.727-0.916-0.431-1.64-1.05-0.727-0.646-1.19-1.54-0.458-0.916-0.458-2.21 0-1.29 0.485-2.32 0.485-1.05 1.37-1.78 0.889-0.727 2.15-1.1 1.27-0.404 2.85-0.404 1.89 0 3.26 0.404t2.26 0.889l-1.21 3.31q-0.781-0.404-1.75-0.7-0.943-0.323-2.29-0.323-1.51 0-2.18 0.431-0.646 0.404-0.646 1.27 0 0.512 0.242 0.862t0.673 0.646q0.458 0.269 1.02 0.512 0.593 0.215 1.29 0.458 1.45 0.539 2.53 1.08 1.08 0.512 1.78 1.21 0.727 0.7 1.08 1.64 0.35 0.943 0.35 2.29 0 2.61-1.83 4.07-1.83 1.43-5.52 1.43-1.24 0-2.24-0.162-0.997-0.135-1.78-0.35-0.754-0.215-1.32-0.458-0.539-0.242-0.916-0.458l1.19-3.34q0.835 0.458 2.05 0.835 1.24 0.35 3.02 0.35z" />
		<path d="m126 9.59q0 1.67-0.485 3.07-0.485 1.37-1.4 2.37-0.916 0.97-2.21 1.51-1.27 0.539-2.85 0.539-1.56 0-2.85-0.539-1.27-0.539-2.18-1.51-0.916-0.997-1.43-2.37-0.512-1.4-0.512-3.07 0-1.67 0.512-3.04 0.539-1.37 1.45-2.34 0.943-0.97 2.21-1.51 1.29-0.539 2.8-0.539 1.54 0 2.8 0.539 1.29 0.539 2.21 1.51 0.916 0.97 1.43 2.34 0.512 1.37 0.512 3.04zm-4.09 0q0-1.86-0.754-2.91-0.727-1.08-2.1-1.08t-2.13 1.08q-0.754 1.05-0.754 2.91 0 1.86 0.754 2.96 0.754 1.08 2.13 1.08t2.1-1.08q0.754-1.1 0.754-2.96z" />
		<path d="m135 17q-1.75-0.0269-2.85-0.377-1.08-0.35-1.72-0.97-0.619-0.646-0.862-1.54-0.215-0.916-0.215-2.05v-15.6l4.01-0.646v15.4q0 0.539 0.0808 0.97t0.296 0.727q0.242 0.296 0.673 0.485 0.431 0.189 1.16 0.242z" />
		<path d="m150 16.2q-1.02 0.296-2.64 0.539-1.62 0.269-3.39 0.269-1.8 0-3.02-0.485-1.19-0.485-1.89-1.35-0.7-0.889-0.997-2.1t-0.296-2.67v-7.89h4.01v7.41q0 1.94 0.512 2.8 0.512 0.862 1.91 0.862 0.431 0 0.916-0.0269 0.485-0.0539 0.862-0.108v-10.9h4.01z" />
		<path d="m153-0.998 4.01-0.646v4.17h4.82v3.34h-4.82v4.98q0 1.27 0.431 2.02 0.458 0.754 1.8 0.754 0.646 0 1.32-0.108 0.7-0.135 1.27-0.35l0.566 3.12q-0.727 0.296-1.62 0.512t-2.18 0.215q-1.64 0-2.72-0.431-1.08-0.458-1.72-1.24-0.646-0.808-0.916-1.94-0.242-1.13-0.242-2.5z" />
		<path d="m169 16.7h-4.01v-14.2h4.01zm0.377-18.3q0 1.1-0.727 1.75-0.7 0.619-1.67 0.619t-1.7-0.619q-0.7-0.646-0.7-1.75 0-1.1 0.7-1.72 0.727-0.646 1.7-0.646t1.67 0.646q0.727 0.619 0.727 1.72z" />
		<path d="m186 9.59q0 1.67-0.485 3.07-0.485 1.37-1.4 2.37-0.916 0.97-2.21 1.51-1.27 0.539-2.85 0.539-1.56 0-2.85-0.539-1.27-0.539-2.18-1.51-0.916-0.997-1.43-2.37-0.512-1.4-0.512-3.07 0-1.67 0.512-3.04 0.539-1.37 1.45-2.34 0.943-0.97 2.21-1.51 1.29-0.539 2.8-0.539 1.54 0 2.8 0.539 1.29 0.539 2.21 1.51 0.916 0.97 1.43 2.34 0.512 1.37 0.512 3.04zm-4.09 0q0-1.86-0.754-2.91-0.727-1.08-2.1-1.08t-2.13 1.08q-0.754 1.05-0.754 2.91 0 1.86 0.754 2.96 0.754 1.08 2.13 1.08t2.1-1.08q0.754-1.1 0.754-2.96z" />
		<path d="m189 3.02q1.02-0.296 2.64-0.539 1.62-0.269 3.39-0.269 1.8 0 2.99 0.485 1.21 0.458 1.91 1.32 0.7 0.862 0.997 2.05t0.296 2.64v8h-4.01v-7.51q0-1.94-0.512-2.75-0.512-0.808-1.91-0.808-0.431 0-0.916 0.0539-0.485 0.0269-0.862 0.0808v10.9h-4.01z" />
		<path d="m209 13.8q1.1 0 1.56-0.215 0.458-0.215 0.458-0.835 0-0.485-0.593-0.835-0.593-0.377-1.8-0.835-0.943-0.35-1.72-0.727-0.754-0.377-1.29-0.889-0.539-0.539-0.835-1.27-0.296-0.727-0.296-1.75 0-1.99 1.48-3.15t4.07-1.16q1.29 0 2.48 0.242 1.19 0.215 1.89 0.485l-0.7 3.12q-0.7-0.242-1.54-0.431-0.808-0.189-1.83-0.189-1.89 0-1.89 1.05 0 0.242 0.0808 0.431t0.323 0.377q0.242 0.162 0.646 0.377 0.431 0.189 1.08 0.431 1.32 0.485 2.18 0.97 0.862 0.458 1.35 1.02 0.512 0.539 0.7 1.21 0.215 0.673 0.215 1.56 0 2.1-1.59 3.18-1.56 1.08-4.44 1.08-1.89 0-3.15-0.323-1.24-0.323-1.72-0.539l0.673-3.26q1.02 0.404 2.1 0.646 1.08 0.215 2.13 0.215z" />
	</g>
</svg>
